<?xml version="1.0" encoding="UTF-8" standalone="no"?>
<!DOCTYPE svg PUBLIC "-//W3C//DTD SVG 1.1//EN"
 "http://www.w3.org/Graphics/SVG/1.1/DTD/svg11.dtd">
<!-- Generated by graphviz version 2.43.0 (0)
 -->
<!-- Title: dependency&#45;cruiser output Pages: 1 -->
<svg width="322pt" height="110pt"
 viewBox="0.00 0.00 322.00 110.00" xmlns="http://www.w3.org/2000/svg" xmlns:xlink="http://www.w3.org/1999/xlink">
<g id="graph0" class="graph" transform="scale(1 1) rotate(0) translate(4 106)">
<title>dependency&#45;cruiser output</title>
<polygon fill="white" stroke="transparent" points="-4,4 -4,-106 318,-106 318,4 -4,4"/>
<g id="clust1" class="cluster">
<title>cluster_src</title>
<path fill="#ffffff" stroke="black" stroke-width="2" d="M20,-8C20,-8 294,-8 294,-8 300,-8 306,-14 306,-20 306,-20 306,-82 306,-82 306,-88 300,-94 294,-94 294,-94 20,-94 20,-94 14,-94 8,-88 8,-82 8,-82 8,-20 8,-20 8,-14 14,-8 20,-8"/>
<text text-anchor="middle" x="157" y="-82.8" font-family="Helvetica,sans-Serif" font-weight="bold" font-size="9.00">src</text>
</g>
<g id="clust2" class="cluster">
<title>cluster_src/controllers</title>
<path fill="#ffffff" stroke="black" stroke-width="2" d="M182,-16C182,-16 286,-16 286,-16 292,-16 298,-22 298,-28 298,-28 298,-56 298,-56 298,-62 292,-68 286,-68 286,-68 182,-68 182,-68 176,-68 170,-62 170,-56 170,-56 170,-28 170,-28 170,-22 176,-16 182,-16"/>
<text text-anchor="middle" x="234" y="-56.8" font-family="Helvetica,sans-Serif" font-weight="bold" font-size="9.00">controllers</text>
</g>
<g id="clust3" class="cluster">
<title>cluster_src/routes</title>
<path fill="#ffffff" stroke="black" stroke-width="2" d="M90,-16C90,-16 150,-16 150,-16 156,-16 162,-22 162,-28 162,-28 162,-56 162,-56 162,-62 156,-68 150,-68 150,-68 90,-68 90,-68 84,-68 78,-62 78,-56 78,-56 78,-28 78,-28 78,-22 84,-16 90,-16"/>
<text text-anchor="middle" x="120" y="-56.8" font-family="Helvetica,sans-Serif" font-weight="bold" font-size="9.00">routes</text>
</g>
<!-- src/app.js -->
<g id="node1" class="node">
<title>src/app.js</title>
<g id="a_node1"><a xlink:href="src/app.js" xlink:title="app.js">
<path fill="#ffffcc" stroke="black" d="M64,-42C64,-42 22,-42 22,-42 19,-42 16,-39 16,-36 16,-36 16,-30 16,-30 16,-27 19,-24 22,-24 22,-24 64,-24 64,-24 67,-24 70,-27 70,-30 70,-30 70,-36 70,-36 70,-39 67,-42 64,-42"/>
<text text-anchor="middle" x="43" y="-30.8" font-family="Helvetica,sans-Serif" font-size="9.00">app.js</text>
</a>
</g>
</g>
<!-- src/routes/customer.js -->
<g id="node2" class="node">
<title>src/routes/customer.js</title>
<g id="a_node2"><a xlink:href="src/routes/customer.js" xlink:title="customer.js">
<path fill="#ffffcc" stroke="black" d="M148,-42C148,-42 92,-42 92,-42 89,-42 86,-39 86,-36 86,-36 86,-30 86,-30 86,-27 89,-24 92,-24 92,-24 148,-24 148,-24 151,-24 154,-27 154,-30 154,-30 154,-36 154,-36 154,-39 151,-42 148,-42"/>
<text text-anchor="middle" x="120" y="-30.8" font-family="Helvetica,sans-Serif" font-size="9.00">customer.js</text>
</a>
</g>
</g>
<!-- src/app.js&#45;&gt;src/routes/customer.js -->
<g id="edge1" class="edge">
<title>src/app.js&#45;&gt;src/routes/customer.js</title>
<path fill="none" stroke="#000000" stroke-width="2" stroke-opacity="0.200000" d="M70.23,-33C73.24,-33 76.36,-33 79.49,-33"/>
<polygon fill="#000000" fill-opacity="0.200000" stroke="#000000" stroke-width="2" stroke-opacity="0.200000" points="79.93,-35.1 85.93,-33 79.93,-30.9 79.93,-35.1"/>
</g>
<!-- src/controllers/customerController.js -->
<g id="node3" class="node">
<title>src/controllers/customerController.js</title>
<g id="a_node3"><a xlink:href="src/controllers/customerController.js" xlink:title="customerController.js">
<path fill="#ffffcc" stroke="black" d="M284,-42C284,-42 184,-42 184,-42 181,-42 178,-39 178,-36 178,-36 178,-30 178,-30 178,-27 181,-24 184,-24 184,-24 284,-24 284,-24 287,-24 290,-27 290,-30 290,-30 290,-36 290,-36 290,-39 287,-42 284,-42"/>
<text text-anchor="middle" x="234" y="-30.8" font-family="Helvetica,sans-Serif" font-size="9.00">customerController.js</text>
</a>
</g>
</g>
<!-- src/routes/customer.js&#45;&gt;src/controllers/customerController.js -->
<g id="edge2" class="edge">
<title>src/routes/customer.js&#45;&gt;src/controllers/customerController.js</title>
<path fill="none" stroke="#000000" stroke-width="2" stroke-opacity="0.200000" d="M154.3,-33C159.7,-33 165.44,-33 171.26,-33"/>
<polygon fill="#000000" fill-opacity="0.200000" stroke="#000000" stroke-width="2" stroke-opacity="0.200000" points="171.59,-35.1 177.59,-33 171.59,-30.9 171.59,-35.1"/>
</g>
</g>
</svg>
